<?xml version="1.0" encoding="utf-8"?>
<!-- Generator: Adobe Illustrator 27.5.0, SVG Export Plug-In . SVG Version: 6.00 Build 0)  -->
<svg version="1.1" xmlns="http://www.w3.org/2000/svg" xmlns:xlink="http://www.w3.org/1999/xlink" x="0px" y="0px"
	 viewBox="0 0 750 500" style="enable-background:new 0 0 750 500;" xml:space="preserve">
<g id="BACKGROUND">
	<rect style="fill:#FFFFFF;" width="750" height="500"/>
</g>
<g id="OBJECTS">
	<g>
		<g>
			<path style="fill:#324868;" d="M688.155,449.313H519.489c-3.322,0-5.729-3.167-4.839-6.368l7.162-25.77
				c0.604-2.174,2.583-3.678,4.839-3.678h153.512c2.201,0,4.146,1.433,4.798,3.535l7.991,25.77
				C693.955,446.035,691.539,449.313,688.155,449.313z"/>
			<g>
				<path style="fill:#FFB469;" d="M584.501,394.904l-40.783-2.519c-4.635-0.286-8.866,2.635-10.24,7.071l-2.823,9.111
					c-1.694,5.467,1.503,11.245,7.034,12.714L600.641,438h6.569l62.953-16.721c5.531-1.469,8.728-7.247,7.034-12.714l-2.823-9.111
					c-1.375-4.436-5.605-7.357-10.24-7.071l-40.783,2.519"/>
				<g>
					<path style="fill:#FFCFC5;" d="M580.025,438.686l9.605-6.997c1.562-1.138,3.317-1.981,5.181-2.489l0,0
						c2.506-0.684,5.142-0.743,7.676-0.173l1.438,0.324L607.21,438l-11.23-0.166c-0.735-0.011-1.468,0.055-2.189,0.197
						l-12.941,2.543C579.742,440.791,579.113,439.351,580.025,438.686z"/>
					<polygon style="fill:#FFCFC5;" points="632.047,431.403 626.065,417.08 603.926,429.351 607.21,438 					"/>
				</g>
				<g>
					<path style="fill:#FFCFC5;" d="M627.826,438.686l-9.605-6.997c-1.562-1.138-3.317-1.981-5.181-2.489l0,0
						c-2.506-0.684-5.142-0.743-7.676-0.173l-1.438,0.324L600.641,438l11.23-0.166c0.735-0.011,1.468,0.055,2.189,0.197
						l12.941,2.543C628.11,440.791,628.739,439.351,627.826,438.686z"/>
					
						<path style="fill:none;stroke:#FFAAA4;stroke-width:0.75;stroke-linecap:round;stroke-linejoin:round;stroke-miterlimit:10;" d="
						M621.627,434.171l-3.406-2.481c-1.562-1.138-3.317-1.981-5.181-2.489l0,0c-2.506-0.684-5.142-0.743-7.676-0.173l-1.438,0.324"
						/>
					<polygon style="fill:#FFCFC5;" points="575.805,431.403 581.787,417.08 603.926,429.351 600.641,438 					"/>
					<line style="fill:none;stroke:#FFDCC0;stroke-miterlimit:10;" x1="556.887" y1="403.279" x2="581.787" y2="417.08"/>
					<line style="fill:none;stroke:#FFDCC0;stroke-miterlimit:10;" x1="651.019" y1="403.279" x2="626.12" y2="417.08"/>
				</g>
				<path style="fill:#FFEDD2;" d="M649.504,365.305l-15.721-20.296c-2.436-3.145-6.191-4.986-10.17-4.986h-39.376
					c-3.979,0-7.733,1.841-10.17,4.986l-15.721,20.296c-3.89,5.022,0.223,12.242,6.527,11.457l17.657-2.199l1.97,20.341
					c0,0,19.425,7.236,38.85,0l1.97-20.341l17.657,2.199C649.281,377.547,653.394,370.327,649.504,365.305z M578.192,364.475
					l3.051-3.206l0.345,3.561L578.192,364.475z M626.263,364.83l0.345-3.561l3.051,3.206L626.263,364.83z"/>
				<g>
					
						<rect x="581.416" y="361.261" transform="matrix(0.9953 -0.0964 0.0964 0.9953 -32.284 57.727)" style="fill:none;" width="0" height="3.578"/>
					<polygon style="fill:none;" points="629.659,364.475 626.608,361.269 626.263,364.83 					"/>
					<polygon style="fill:none;" points="581.588,364.83 581.243,361.269 578.192,364.475 					"/>
					<path style="fill:#FFCFC5;" d="M578.192,364.475l3.051-3.206l0,0l-8.24-14.884l-14.656,18.921
						c-3.89,5.022,0.223,12.242,6.527,11.457l17.657-2.199l-0.943-9.733L578.192,364.475z"/>
					<path style="fill:#FFCFC5;" d="M649.504,365.305l-14.656-18.921l-8.24,14.884l3.051,3.206l-3.396,0.355l0.345-3.561
						l-1.287,13.294l0,0l17.657,2.199C649.281,377.547,653.394,370.327,649.504,365.305z"/>
				</g>
				<path style="fill:#FFCFC5;" d="M599.314,366.684c0,0,0-7.89,4.612-12.124v16.331c0,0-0.866,1.885-4.612,1.472V366.684z"/>
				<path style="fill:#FFCFC5;" d="M608.538,366.684c0,0,0-7.89-4.612-12.124v16.331c0,0,0.866,1.885,4.612,1.472V366.684z"/>
				<polyline style="fill:#FFCFC5;" points="582.531,374.562 599.314,372.364 599.314,366.684 571.361,363.76 				"/>
				<polyline style="fill:#FFCFC5;" points="625.321,374.562 608.538,372.364 608.538,366.684 636.491,363.76 				"/>
				
					<line style="fill:none;stroke:#FFAAA4;stroke-width:0.75;stroke-linecap:round;stroke-linejoin:round;stroke-miterlimit:10;" x1="578.192" y1="364.475" x2="567.32" y2="363.337"/>
				
					<line style="fill:none;stroke:#FFAAA4;stroke-width:0.75;stroke-linecap:round;stroke-linejoin:round;stroke-miterlimit:10;" x1="629.659" y1="364.475" x2="640.532" y2="363.337"/>
				<g>
					<g>
						<path style="fill:#F7B3A9;" d="M605.185,349.593h-2.518c-2.032,0-3.679-1.647-3.679-3.679v-15.452h9.876v15.452
							C608.864,347.946,607.216,349.593,605.185,349.593z"/>
						<g>
							<path style="fill:#886BB5;" d="M614.175,322.584l-1.314,0.879l-19.835-1.556c0,0-2.706-3.707-2.109-6.092
								c0.596-2.386,3.082-4.573,3.082-4.573s-1.518-4.529,6.895-8.262c9.046-4.014,5.338,2.496,5.338,2.496
								s5.991-4.781,10.961-2.196C622.164,305.864,616.754,320.208,614.175,322.584z"/>
							<path style="fill:#4D96FF;" d="M614.175,322.584"/>
							<path style="fill:#FFCFC5;" d="M594.719,316.901v10.009c0,4.814,3.903,8.717,8.717,8.717l0,0
								c4.814,0,8.717-3.903,8.717-8.717v-12.733l-4.176,1.837c-1.458,0.641-3.035,0.966-4.627,0.954L594.719,316.901z"/>
							<path style="fill:#FFCFC5;" d="M612.153,320.438l0.721-0.605c0.637-0.534,1.601-0.02,1.512,0.807l-0.21,1.944
								c-0.056,0.514-0.294,0.992-0.672,1.345l-1.35,1.263V320.438z"/>
							<path style="fill:#FFCFC5;" d="M594.719,320.438l-0.721-0.605c-0.637-0.534-1.601-0.02-1.512,0.807l0.21,1.944
								c0.056,0.514,0.294,0.992,0.672,1.345l1.35,1.263V320.438z"/>
							<path style="fill:#886BB5;" d="M606.217,336.628h-5.561c-3.279,0-5.936-2.658-5.936-5.936v-4.215h17.434v4.215
								C612.153,333.97,609.495,336.628,606.217,336.628z"/>
						</g>
					</g>
				</g>
				
					<line style="fill:none;stroke:#FFAAA4;stroke-width:0.75;stroke-linecap:round;stroke-linejoin:round;stroke-miterlimit:10;" x1="586.331" y1="434.199" x2="600.641" y2="438"/>
			</g>
		</g>
		<g>
			<path style="fill:#324868;" d="M69.488,226.922h194.923c3.087,0,5.323-2.944,4.495-5.917l-6.693-24.042
				c-0.562-2.018-2.4-3.415-4.495-3.415H76.953c-2.044,0-3.85,1.33-4.456,3.282l-7.466,24.042
				C64.099,223.875,66.343,226.922,69.488,226.922z"/>
			<g>
				<path style="fill:#324868;" d="M116.379,149.738c0,0-6.323-1.101-7.58-6.959c-1.029-4.794,0.958-12.57,7.822-14.107
					c7.714-1.727,8.654,4.127,16.523,0.85c6.723-2.8,0.381-10.531,2.434-14.929c2.206-4.727,21.672-1.979,17.179,12.837
					C147.92,143.378,131.536,152.684,116.379,149.738z"/>
				<g>
					<path style="fill:#886BB5;" d="M168.606,154.779l34.482-26.414l-27.361-32.018l-42.599,51.999l6.536,5.618
						C147.905,161.047,159.98,161.387,168.606,154.779z"/>
					<path style="fill:#FFB469;" d="M182.211,92.995L182.211,92.995c-12.276,3.426-17.076,18.268-9.131,28.233l66.271,83.128h10.94
						L203.139,102.65C199.471,94.739,190.611,90.651,182.211,92.995z"/>
					<path style="fill:#FFCFC5;" d="M239.352,204.356l-20.536,7.085c-1.527,0.527-1.148,2.784,0.467,2.784h29.937
						c1.293,0,2.394-0.918,2.64-2.187c0.376-1.934,0.429-4.877-1.568-7.682H239.352z"/>
					<g>
						
							<rect x="133.957" y="132.628" transform="matrix(0.2255 0.9742 -0.9742 0.2255 247.4216 -23.5621)" style="fill:#FFBBB0;" width="9.147" height="22.409"/>
						<path style="fill:#FFCFC5;" d="M130.068,143.994l-1.328-1.046l-1.284-2.509c-0.862-1.686-3.476-1.584-3.968,0.244
							c-0.068,0.255-0.092,0.52-0.062,0.785l0.188,1.654c-2.675,5.778-8.458,5.552-8.458,5.552l5.073,4.425l1.454,3.929
							c0.108,0.292,0.495,0.323,0.71,0.059l1.091-1.342l4.035,2.015c1.071,0.535,2.38,0.279,3.139-0.648
							C132.632,154.702,135.358,149.655,130.068,143.994z"/>
					</g>
					<path style="fill:#FFCFC5;" d="M103.812,206.88L103.812,206.88c0.582,3.634-1.954,6.608-5.634,6.608H79.383
						c-0.689,0-0.901-0.933-0.28-1.231l8.639-4.141c1.006-0.482,2.091-0.776,3.203-0.868l4.473-0.369H103.812z"/>
					<path style="fill:#FFCFC5;" d="M153.368,151.429L103.8,206.88h-8.382l43.04-66.806c2.921-4.534,9.05-5.686,13.417-2.521v0
						C156.387,140.822,157.082,147.275,153.368,151.429z"/>
				</g>
			</g>
		</g>
		<g>
			<path style="fill:#DDC2FF;" d="M479.955,237.819H684.9c3.136,0,5.409-2.99,4.571-6.012l-6.726-24.236
				c-0.57-2.054-2.439-3.475-4.571-3.475H487.461c-2.079,0-3.916,1.354-4.531,3.34l-7.506,24.236
				C474.479,234.724,476.76,237.819,479.955,237.819z"/>
			<g>
				<path style="fill:#324868;" d="M640.951,98.39c0,0,2.233-5.172-2.343-9.051c-4.829-4.093-11.639-2.179-16.714,0.39
					c-4.943,2.503,0.385,5.14,0.385,5.14s-4.667,2.134-5.343,5.529c-0.711,3.573,6.903,14.002,11.038,13.409
					C633.702,112.985,640.951,98.39,640.951,98.39z"/>
				<path style="fill:#D67B7B;" d="M637.849,133.037L637.849,133.037c2.417-0.651,3.849-3.139,3.198-5.556l-3.672-13.631
					l-9.401-0.043l4.319,16.032C632.945,132.256,635.432,133.688,637.849,133.037z"/>
				<path style="fill:#E08B89;" d="M518.486,215.041v9.14l76.647-7.86c21.747-2.23,41.785-12.796,55.911-29.48l0,0l0,0
					l-31.212-14.504l-7.967,3.155c-5.113,2.025-9.301,5.863-11.763,10.781l0,0c-2.012,4.019-5.616,7.01-9.937,8.247L518.486,215.041
					z"/>
				<path style="fill:#324868;" d="M590.164,194.52c4.321-1.237,7.925-4.228,9.937-8.247c2.462-4.918,6.65-8.756,11.763-10.781
					l7.967-3.155l31.212,14.504c-14.126,16.685-34.164,27.25-55.911,29.48l-14.09,1.445l-4.522-19.34L590.164,194.52z"/>
				<path style="fill:#E08B89;" d="M515.023,213.858l3.463,1.183v9.14l-12.143,0.202l-15.445-0.135
					c-1.708-0.015-2.161-2.366-0.579-3.013l17.495-7.163C510.111,213.132,512.673,213.056,515.023,213.858z"/>
				<path style="fill:#FFB469;" d="M642.413,123.3h-11.615c-0.774,0-1.425,0.581-1.514,1.35l-2.803,24.351l-6.649,23.336
					c15.01,13.288,31.212,14.504,31.212,14.504l4.598-34.652C657.15,140.818,652.008,129.588,642.413,123.3L642.413,123.3z"/>
				<path style="fill:#E08B89;" d="M643.183,131.198l16.778,86.413h-7.347l-28.228-81.354c-2.2-6.339,2.508-12.956,9.218-12.956l0,0
					C638.276,123.3,642.292,126.612,643.183,131.198z"/>
				<path style="fill:#E08B89;" d="M652.614,217.611L652.614,217.611c-0.562,3.512,2.151,6.693,5.707,6.693h17.488
					c0.824,0,1.078-1.116,0.335-1.472l-7.076-3.392c-0.659-0.316-1.359-0.537-2.08-0.657l-7.028-1.172H652.614z"/>
				<path style="fill:#E08B89;" d="M631.105,102.288l-1.439-0.963c-1.002-0.671-2.391-0.355-2.986,0.757
					c-0.39,0.729-0.249,1.633,0.244,2.297l2.141,2.881c0,0,2.5,3.227-1.091,6.548l2.199,2.638c1.154,1.385,2.981,2.016,4.744,1.64
					l7.263-1.55c1.915-0.409,3.092-2.343,2.576-4.231l-1.216-4.446l1.353-0.37c0.444-0.121,0.601-0.671,0.287-1.008l-2.859-3.075
					l-1.608-5.879c0,0-1.829,2.16-4.077,2.845C634.389,101.054,632.517,100.847,631.105,102.288z"/>
			</g>
		</g>
		<g>
			<path style="fill:#DDC2FF;" d="M244.318,448.958H75.185c-3.299,0-5.687-3.147-4.8-6.324l7.241-25.923
				c0.602-2.154,2.564-3.643,4.8-3.643h153.817c2.182,0,4.109,1.419,4.758,3.502l8.075,25.923
				C250.075,445.7,247.678,448.958,244.318,448.958z"/>
			<g>
				<ellipse style="fill:#886BB5;" cx="159.854" cy="321.577" rx="12.876" ry="13.234"/>
				<path style="fill:#886BB5;" d="M167.015,307.41c0,3.169-3.121,5.738-6.971,5.738c-3.85,0-6.971-2.569-6.971-5.738
					c0-3.169,3.121-5.738,6.971-5.738C163.894,301.672,167.015,304.241,167.015,307.41z"/>
				<g>
					<g>
						<path style="fill:#886BB5;" d="M142.841,398.111l-37.315-2.305c-4.242-0.262-8.112,2.411-9.37,6.47l-2.583,8.336
							c-1.55,5.002,1.375,10.289,6.436,11.633l57.601,15.299h6.01l57.601-15.299c5.061-1.344,7.986-6.631,6.436-11.633l-2.583-8.336
							c-1.258-4.059-5.128-6.732-9.37-6.47l-37.316,2.305"/>
						<g>
							<path style="fill:#FFCFC5;" d="M138.746,438.172l8.788-6.402c1.429-1.041,3.035-1.813,4.74-2.278l0,0
								c2.293-0.625,4.705-0.68,7.024-0.158l1.316,0.296l3.005,7.914l-10.275-0.152c-0.672-0.01-1.344,0.05-2.003,0.18l-11.84,2.327
								C138.487,440.098,137.911,438.78,138.746,438.172z"/>
							<polygon style="fill:#FFCFC5;" points="186.345,431.508 180.871,418.402 160.614,429.63 163.619,437.544 							"/>
						</g>
						<g>
							<path style="fill:#FFCFC5;" d="M182.483,438.172l-8.788-6.402c-1.429-1.041-3.035-1.813-4.74-2.278h0
								c-2.293-0.625-4.705-0.68-7.024-0.158l-1.316,0.296l-3.005,7.914l10.275-0.152c0.672-0.01,1.344,0.05,2.003,0.18l11.84,2.327
								C182.742,440.098,183.318,438.78,182.483,438.172z"/>
							
								<path style="fill:none;stroke:#FFAAA4;stroke-width:0.75;stroke-linecap:round;stroke-linejoin:round;stroke-miterlimit:10;" d="
								M176.811,434.04l-3.116-2.27c-1.429-1.041-3.035-1.813-4.74-2.278h0c-2.293-0.625-4.705-0.68-7.024-0.158l-1.316,0.296"/>
							<polygon style="fill:#FFCFC5;" points="134.884,431.508 140.358,418.402 160.614,429.63 157.609,437.544 							"/>
							
								<line style="fill:none;stroke:#BC95DB;stroke-linecap:round;stroke-miterlimit:10;" x1="117.575" y1="405.774" x2="140.358" y2="418.402"/>
							
								<line style="fill:none;stroke:#BC95DB;stroke-linecap:round;stroke-miterlimit:10;" x1="203.704" y1="405.774" x2="180.921" y2="418.402"/>
						</g>
						
							<line style="fill:none;stroke:#FFAAA4;stroke-width:0.75;stroke-linecap:round;stroke-linejoin:round;stroke-miterlimit:10;" x1="144.516" y1="434.066" x2="157.609" y2="437.544"/>
						<path style="fill:#FFCFC5;" d="M230.252,403.101l6.709,2.875c0.697,0.299,1.439,0.478,2.195,0.53l5.037,0.348
							c0.686,0.047,1.37-0.113,1.964-0.459l3.993-2.331c0.296-0.173,0.461-0.505,0.42-0.845l0,0
							c-0.065-0.542-0.612-0.887-1.129-0.713l-2.963,0.999c-0.684,0.231-1.424,0.24-2.113,0.025l-1.565-0.487l2.299-1.777
							c0.174-0.134,0.294-0.325,0.341-0.539l0.923-4.229c0.07-0.321-0.033-0.654-0.273-0.879l-1.891-1.777
							c-0.36-0.339-0.922-0.337-1.281,0.003l0,0c-0.282,0.267-0.369,0.682-0.218,1.04l0.669,1.585
							c0.118,0.279,0.093,0.599-0.067,0.856l-1.185,1.904c-0.124,0.2-0.32,0.346-0.548,0.408l-1.453,0.091
							c-0.797,0.05-1.523-0.455-1.755-1.219l0,0c-0.199-0.658,0.012-1.371,0.536-1.814l1.761-1.488
							c0.289-0.238,0.408-0.626,0.301-0.986l-0.101-0.339c-0.151-0.51-0.698-0.79-1.2-0.616l-3.377,1.25
							c-0.726,0.269-1.306,0.829-1.599,1.546l-0.591,1.444l-1.632-0.136L230.252,403.101z"/>
						<path style="fill:#FFCFC5;" d="M89.456,403.101l-6.709,2.875c-0.697,0.299-1.439,0.478-2.195,0.53l-5.037,0.348
							c-0.686,0.047-1.37-0.113-1.964-0.459l-3.993-2.331c-0.296-0.173-0.461-0.505-0.42-0.845l0,0
							c0.065-0.542,0.612-0.887,1.129-0.713l2.963,0.999c0.684,0.231,1.424,0.24,2.113,0.025l1.565-0.487l-2.299-1.777
							c-0.174-0.134-0.294-0.325-0.341-0.539l-0.924-4.229c-0.07-0.321,0.034-0.654,0.272-0.879l1.891-1.777
							c0.36-0.339,0.922-0.337,1.281,0.003l0,0c0.282,0.267,0.369,0.682,0.218,1.04l-0.669,1.585
							c-0.118,0.279-0.093,0.599,0.067,0.856l1.185,1.904c0.124,0.2,0.32,0.346,0.548,0.408l1.453,0.091
							c0.797,0.05,1.523-0.455,1.755-1.219l0,0c0.199-0.658-0.012-1.371-0.536-1.814l-1.761-1.488
							c-0.289-0.238-0.408-0.626-0.301-0.986l0.101-0.339c0.151-0.51,0.698-0.79,1.2-0.616l3.378,1.25
							c0.726,0.269,1.306,0.829,1.599,1.546l0.591,1.444l1.632-0.136L89.456,403.101z"/>
					</g>
					<path style="fill:#FFCFC5;" d="M178.352,398.111l1.876-27.044c0.037-0.539,0.732-0.733,1.043-0.291l13.966,19.853
						c1.811,2.574,4.473,4.426,7.517,5.227l27.499,7.244l2.208-5.731l-22.257-11.839c-2.178-1.158-3.992-2.897-5.241-5.024
						l-15.333-26.103c-3.111-5.297-8.795-8.55-14.938-8.55h-29.675c-6.143,0-11.827,3.253-14.939,8.55l-15.332,26.103
						c-1.249,2.127-3.063,3.866-5.241,5.024l-22.257,11.839l2.208,5.731l27.499-7.244c3.044-0.802,5.706-2.653,7.517-5.227
						l13.966-19.853c0.311-0.442,1.005-0.249,1.043,0.291l1.876,27.044C141.357,398.111,159.854,405.002,178.352,398.111z"/>
					<path style="fill:#FFEDD2;" d="M176.838,345.994l-2.761,12.618c-0.744,3.401-3.756,5.825-7.238,5.825H152.87
						c-3.482,0-6.494-2.424-7.238-5.825l-2.761-12.618c-1.57,0.196-3.091,0.6-4.526,1.2l1.136,23.874l0.9,12.968h38.947l0.9-12.968
						l1.136-23.874C179.928,346.594,178.407,346.19,176.838,345.994z"/>
				</g>
				<path style="fill:#FFCFC5;" d="M161.436,355.695h-3.163c-1.925,0-3.486-1.561-3.486-3.486v-16.148h10.135v16.148
					C164.922,354.135,163.361,355.695,161.436,355.695z"/>
				<g>
					<path style="fill:#FFA799;" d="M154.787,342.078c1.498,0.847,3.224,1.336,5.068,1.336c1.843,0,3.57-0.489,5.067-1.336v-5.582
						h-10.135V342.078z"/>
					<path style="fill:#FFCFC5;" d="M168.962,321.611v10.804c0,5.03-4.077,9.107-9.107,9.107h0c-5.03,0-9.107-4.077-9.107-9.107
						v-10.804c0,0,5.44,0.442,9.107-1.989C163.522,322.053,168.962,321.611,168.962,321.611z"/>
					<path style="fill:#FFCFC5;" d="M168.962,326.936L168.962,326.936c0.939-0.787,2.358-0.03,2.227,1.188l-0.114,1.054
						c-0.058,0.537-0.307,1.036-0.702,1.405l-1.411,1.319V326.936z"/>
					<path style="fill:#FFCFC5;" d="M150.747,326.936L150.747,326.936c-0.939-0.787-2.358-0.03-2.227,1.188l0.114,1.054
						c0.058,0.537,0.307,1.036,0.702,1.405l1.411,1.319V326.936z"/>
				</g>
			</g>
		</g>
		<g>
			<path style="fill:#FFB469;" d="M496.232,160.483h-206.46c-2.999,0-5.164-2.87-4.34-5.754l7.148-25.027
				c0.554-1.938,2.325-3.274,4.341-3.274h191.358c1.966,0,3.707,1.273,4.302,3.147l7.953,25.027
				C501.459,157.513,499.287,160.483,496.232,160.483z"/>
			<g>
				<polygon style="fill:#E08B89;" points="401.397,83.873 302.457,83.873 302.457,92.13 386.384,109.971 				"/>
				<path style="fill:#E08B89;" d="M299.319,82.802l3.137,1.072v8.281l-11.002,0.183l-13.993-0.122
					c-1.548-0.013-1.957-2.144-0.525-2.73l15.85-6.49C294.869,82.143,297.19,82.074,299.319,82.802z"/>
				<g>
					<polygon style="fill:#886BB5;" points="401.397,83.873 386.384,109.971 332.163,97.703 332.163,83.873 					"/>
				</g>
				<g>
					<path style="fill:#905CC6;" d="M430.352,90.71c-3.572-1.444-7.235-2.98-9.543-6.065c-0.973-1.3-1.763-2.812-1.828-4.434
						c-0.065-1.622,0.742-3.353,2.228-4.006c2.172-0.955,4.545,0.611,6.859,1.138c2.789,0.636,5.895-0.401,7.741-2.587
						c1.381-1.634,2.219-3.929,4.205-4.723c2.809-1.123,6.297,1.47,8.884-0.099c0.796-0.483,1.34-1.291,1.757-2.124
						c1.35-2.694,3.151-5.684,5.8-7.12c6.571-3.563,12.726-2.287,16.009,3.121c3.283,5.407-1.835,9.077-1.835,9.077
						s-10.042,6.777-13.036,10.969C454.598,88.049,439.322,94.336,430.352,90.71z"/>
				</g>
				<polygon style="fill:#CC7575;" points="449.572,83.873 507.396,83.873 507.396,90.071 446.185,100.601 				"/>
				<polygon style="fill:#FFEDD2;" points="449.572,83.873 446.185,100.601 462.543,98.187 464.71,83.873 				"/>
				<path style="fill:#CC7575;" d="M507.396,83.873l18.641,0.8c0.448,0.019,0.726,0.495,0.523,0.894l-0.049,0.097
					c-0.632,1.246-1.819,2.116-3.198,2.343l-8.685,1.432c-1.064,0.176-1.769,1.201-1.552,2.257l0.25,1.215
					c0.22,1.07-0.184,2.172-1.043,2.846l0,0c-0.352,0.276-0.863,0.197-1.116-0.172l-3.772-5.516V83.873z"/>
				
					<rect x="451.244" y="76.381" transform="matrix(0.5876 0.8091 -0.8091 0.5876 257.6093 -333.0479)" style="fill:#C17070;" width="8.591" height="19.643"/>
				<path style="fill:#E08B89;" d="M460.308,78.01l0.023-1.51l-1.016-2.304c-0.683-1.547,0.86-3.302,2.405-2.613
					c0.215,0.096,0.413,0.23,0.579,0.4l1.04,1.062c5.513,1.401,8.614-2.735,8.614-2.735l0.209,6.009l1.905,3.222
					c0.141,0.239-0.055,0.525-0.359,0.525h-1.545l-0.876,3.932c-0.233,1.044-1.148,1.807-2.218,1.811
					C466.288,85.82,461.253,84.866,460.308,78.01z"/>
				<path style="fill:none;" d="M397.929,85.024"/>
				<path style="fill:#FFEDD2;" d="M401.397,83.873h49.653l-4.306,13.41c-3.405,10.603-14.147,17.034-25.102,15.027l-20.245-3.709
					V83.873z"/>
				<path style="fill:#FFEDD2;" d="M455.82,97.972c4.914-5.42,1.068-14.099-6.248-14.099c-2.609,0-5.071,1.208-6.668,3.27
					l-7.203,9.302l12.366,10.077L455.82,97.972z"/>
				<path style="fill:#E08B89;" d="M448.066,106.523L435.7,96.446l-4.818,6.223c-3.622,4.678-3.454,11.258,0.403,15.745
					l18.997,22.097h6.656l-13.023-29.409L448.066,106.523z"/>
				<path style="fill:#E08B89;" d="M450.282,140.511L450.282,140.511c-0.509,3.182,1.948,6.064,5.171,6.064h15.845
					c0.746,0,0.976-1.011,0.303-1.334l-6.411-3.073c-0.597-0.286-1.231-0.487-1.884-0.595l-6.367-1.062H450.282z"/>
				<path style="fill:#E08B89;" d="M408.305,92.037l-4.353,33.155c-1.506,11.473-11.285,20.052-22.857,20.052h-49.761v-8.281
					l46.826-11.709l3.556-22.292c1.333-8.354,7.162-15.292,15.16-18.046l1.907-0.657C403.861,82.511,409.004,86.713,408.305,92.037z
					"/>
				<path style="fill:#E08B89;" d="M328.197,135.891l3.137,1.072v8.281l-11.002,0.183l-13.993-0.122
					c-1.548-0.013-1.957-2.144-0.525-2.73l15.85-6.49C323.747,135.232,326.068,135.163,328.197,135.891z"/>
				<path style="fill:#886BB5;" d="M378.16,125.253l3.556-22.292c1.333-8.354,7.162-15.292,15.16-18.046l1.907-0.657
					c5.077-1.748,10.221,2.453,9.522,7.777l-4.353,33.155c-1.506,11.473-11.285,20.052-22.857,20.052h-25.572v-14.329
					L378.16,125.253z"/>
			</g>
		</g>
		<g>
			<path style="fill:#FFB469;" d="M466.874,423.274H299.862c-3.55,0-6.13-3.374-5.2-6.8l7.051-25.966
				c0.637-2.347,2.768-3.976,5.2-3.976h152.075c2.373,0,4.466,1.552,5.155,3.822l7.886,25.966
				C473.08,419.781,470.491,423.274,466.874,423.274z"/>
			<g>
				<path style="fill:#324868;" d="M375.231,334.276l63.363,63.429h13.024l-57.012-85.262h-39.582l-28.802,15.622
					c-6.144,3.333-9.304,10.36-7.718,17.168l12.219,52.473h11.17l-0.761-51.506L375.231,334.276z"/>
				<path style="fill:#E08B89;" d="M355.024,312.443l-4.974-26.661c-0.612-3.282-3.409-5.708-6.744-5.85l-58.59-2.498v-6.396
					l66.678-9.037c2.11-0.286,4.237-0.43,6.366-0.43h30.992c2.129,0,4.256,0.143,6.366,0.43l66.678,9.037v6.396l-61.868,2.451
					c-4.021,0.159-7.124,3.595-6.874,7.611l1.551,24.947"/>
				<path style="fill:#E08B89;" d="M284.715,271.038l-20.827,0.894c-0.5,0.021-0.811,0.553-0.584,0.999l0.055,0.109
					c0.706,1.392,2.033,2.364,3.572,2.618l9.703,1.6c1.189,0.196,1.976,1.342,1.733,2.522l-0.313,1.522
					c-0.225,1.094,0.188,2.221,1.067,2.911l0,0c0.46,0.361,1.13,0.246,1.444-0.247l4.151-6.531V271.038z"/>
				<path style="fill:#E08B89;" d="M461.796,271.038l20.827,0.894c0.5,0.021,0.811,0.553,0.584,0.999l-0.055,0.109
					c-0.706,1.392-2.033,2.364-3.572,2.618l-9.703,1.6c-1.189,0.196-1.976,1.342-1.733,2.522l0.313,1.522
					c0.225,1.094-0.188,2.221-1.067,2.911l0,0c-0.46,0.361-1.13,0.246-1.444-0.247l-4.15-6.531V271.038z"/>
				<path style="fill:#E08B89;" d="M438.594,397.705l-17.578,5.943c-1.294,0.438-0.979,2.35,0.387,2.35h29.313
					c1.086,0,2.012-0.771,2.219-1.838c0.316-1.625,0.361-4.098-1.317-6.455H438.594z"/>
				<path style="fill:#E08B89;" d="M330.723,397.705l-19.561,6.157c-1.193,0.375-0.922,2.136,0.328,2.136h29.536
					c1.087,0,2.012-0.771,2.219-1.838c0.316-1.625,0.361-4.098-1.317-6.455H330.723z"/>
				<path style="fill:#886BB5;" d="M395.117,262.001c-2.11-0.286-4.237-0.429-6.366-0.429h-30.992c-2.129,0-4.256,0.143-6.366,0.429
					l-19.657,2.664l1.739,14.848l9.829,0.419c3.336,0.142,6.132,2.568,6.744,5.85l4.974,26.661h39.582l-1.551-24.947
					c-0.25-4.016,2.853-7.452,6.874-7.611l9.395-0.372l-1.855-15.838L395.117,262.001z"/>
				<g>
					<path style="fill:#324868;" d="M359.417,237.594c0,0-8.4-6.255-2.285-12.191c5.436-5.278,11.931,2.916,15.265,3.243
						c3.334,0.327,6.114,0.487,7.355,3.559c1.242,3.072,1.688,12.971-4.185,16.44C369.077,252.48,359.417,237.594,359.417,237.594z"
						/>
					<path style="fill:#E08B89;" d="M370.421,272.639L370.421,272.639c-2.842,0-5.146-2.304-5.146-5.146v-16.025l10.292-2.823
						v18.848C375.567,270.335,373.263,272.639,370.421,272.639z"/>
					<path style="fill:#C97373;" d="M365.275,256.953l4.993-0.283c2.159-0.122,4.09-1.235,5.298-2.969v-5.056l-10.292,2.823V256.953
						z"/>
					<path style="fill:#E08B89;" d="M369.667,238.629l1.104-1.275c0.769-0.887,2.155-0.948,2.999-0.056
						c0.553,0.585,0.654,1.471,0.361,2.22l-1.271,3.256c0,0-1.519,3.673,2.707,5.871l-1.388,3.043
						c-0.729,1.597-2.282,2.66-4.036,2.759l-7.221,0.41c-1.904,0.108-3.507-1.406-3.507-3.313v-4.489h-1.366
						c-0.448,0-0.737-0.476-0.529-0.873l1.895-3.623v-5.936c0,0,2.273,1.56,4.561,1.625
						C366.265,238.313,367.97,237.638,369.667,238.629z"/>
				</g>
			</g>
		</g>
	</g>
</g>
</svg>
